<svg xmlns="http://www.w3.org/2000/svg" width="1000" height="300" viewBox="100 190 1000 300" version="1.1"><path d="M 245.436 254.305 C 245.161 255.023, 245.062 261.211, 245.218 268.055 L 245.500 280.500 285.250 280.761 L 325 281.023 325 275.511 L 325 270 327 270 L 329 270 329 276 C 329 280.667, 329.333 282, 330.500 282 L 332 282 332 274.500 L 332 267 328.441 267 C 326.323 267, 325.132 266.595, 325.500 266 C 325.840 265.450, 327.666 265, 329.559 265 L 333 265 333 273.500 L 333 282 334.500 282 L 336 282 336 272.552 L 336 263.105 330.750 262.802 L 325.500 262.500 325.195 257.750 L 324.890 253 285.414 253 L 245.937 253 245.436 254.305 M 355.436 254.305 C 355.161 255.023, 355.062 261.211, 355.218 268.055 L 355.500 280.500 411.250 280.758 L 467 281.017 467 275.508 L 467 270 469 270 L 471 270 471 281.964 L 471 293.928 453.250 293.933 C 443.488 293.937, 425.712 293.953, 413.750 293.970 L 392 294 392 303.500 L 392 313 393.500 313 L 395 313 395 304.535 L 395 296.070 431.250 296.094 C 451.188 296.107, 468.962 296.092, 470.750 296.059 L 474 296 474 281.500 L 474 267 470.441 267 C 468.323 267, 467.132 266.595, 467.500 266 C 467.840 265.450, 469.666 265, 471.559 265 L 475 265 475 281.500 L 475 298 435.500 298 L 396 298 396 305.500 L 396 313 397.500 313 C 398.667 313, 399 311.667, 399 307 L 399 301 438.500 301 L 478 301 478 282.052 L 478 263.105 472.750 262.802 L 467.500 262.500 467.195 257.750 L 466.890 253 411.414 253 L 355.937 253 355.436 254.305 M 497.436 254.305 C 497.161 255.023, 497.062 261.211, 497.218 268.055 L 497.500 280.500 545.250 280.760 L 593 281.019 593 275.510 L 593 270 595 270 L 597 270 597 282.012 L 597 294.023 563.250 293.980 C 544.688 293.956, 526.907 293.951, 523.739 293.968 L 517.977 294 518.239 334.167 C 518.439 365.020, 518.787 374.429, 519.738 374.746 C 520.706 375.069, 521.034 366.558, 521.238 335.829 L 521.500 296.500 557.500 296.304 C 577.300 296.196, 594.962 296.084, 596.750 296.054 L 600 296 600 281.500 L 600 267 596.300 267 C 593.666 267, 592.909 266.691, 593.673 265.927 C 594.263 265.337, 596.265 265, 598.123 265.177 L 601.500 265.500 601.730 281.750 L 601.960 298 562.480 298 L 523 298 522.949 304 C 522.921 307.300, 522.897 317.650, 522.897 327 C 522.897 369.293, 523.029 375, 524 375 C 524.649 375, 525 362, 525 338 L 525 301 564.500 301 L 604 301 604 282.052 L 604 263.105 598.750 262.802 L 593.500 262.500 593.195 257.750 L 592.890 253 545.414 253 L 497.937 253 497.436 254.305 M 608 267.025 L 608 281.050 624.250 280.775 L 640.500 280.500 640.802 275.250 C 641.020 271.473, 641.511 270, 642.552 270 L 644 270 644 343.900 L 644 417.801 632 417.933 L 620 418.065 620 411.567 L 620 405.070 630.250 404.785 L 640.500 404.500 640.778 390.750 L 641.056 377 624.528 377 L 608 377 608 391 L 608 405 610.500 405 L 613 405 613 415 L 613 425 632 425 L 651 425 651 344 L 651 263 646 263 L 641 263 641 258 L 641 253 624.500 253 L 608 253 608 267.025 M 655.436 254.305 C 655.161 255.023, 655.062 261.211, 655.218 268.055 L 655.500 280.500 671.500 280.500 L 687.500 280.500 687.802 275.250 L 688.105 270 690.052 270 L 692 270 692 344.055 L 692 418.110 679.750 417.805 L 667.500 417.500 667.203 411.285 L 666.906 405.071 677.203 404.785 L 687.500 404.500 687.778 390.725 L 688.057 376.950 671.778 377.225 L 655.500 377.500 655.500 391 L 655.500 404.500 657.715 404.815 L 659.929 405.130 660.215 414.815 L 660.500 424.500 679.750 424.772 L 699 425.043 699 344.022 L 699 263 693.500 263 L 688 263 688 258 L 688 253 671.969 253 C 659.703 253, 655.820 253.307, 655.436 254.305 M 797.436 254.305 C 797.161 255.023, 797.062 261.211, 797.218 268.055 L 797.500 280.500 813.500 280.500 L 829.500 280.500 829.802 275.250 L 830.105 270 832.052 270 L 834 270 834 344.055 L 834 418.110 821.750 417.805 L 809.500 417.500 809.203 411.285 L 808.906 405.071 819.203 404.785 L 829.500 404.500 829.778 390.725 L 830.057 376.950 813.778 377.225 L 797.500 377.500 797.500 391 L 797.500 404.500 799.715 404.815 L 801.929 405.130 802.215 414.815 L 802.500 424.500 821.750 424.772 L 841 425.043 841 344.022 L 841 263 835.500 263 L 830 263 830 258 L 830 253 813.969 253 C 801.703 253, 797.820 253.307, 797.436 254.305 M 844.436 254.305 C 844.161 255.023, 844.062 261.211, 844.218 268.055 L 844.500 280.500 846.715 280.815 L 848.929 281.130 849.215 290.815 L 849.500 300.500 870.750 300.770 L 892 301.040 892 306.520 L 892 312 908 312 L 924 312 924 298 L 924 284 908 284 L 892 284 892 288.988 L 892 293.976 874.250 293.738 L 856.500 293.500 856.202 287.258 L 855.905 281.016 913.702 280.758 L 971.500 280.500 971.802 275.250 L 972.105 270 974.052 270 L 976 270 976 282.039 L 976 294.078 957.750 293.998 C 947.712 293.954, 936.913 293.937, 933.750 293.959 L 928 294 928 356.025 L 928 418.050 916 417.931 L 904 417.813 904 411.406 L 904 405 914 405 L 924 405 924 391 L 924 377 908 377 L 892 377 892 391 L 892 405 894.500 405 L 897 405 897 415 L 897 425 916 425 L 935 425 935 363 L 935 301 959 301 L 983 301 983 282 L 983 263 977.500 263 L 972 263 972 258 L 972 253 908.469 253 L 844.937 253 844.436 254.305 M 641 265.940 C 641 266.523, 642.350 267, 644 267 L 647 267 647 343.500 L 647 420 643.750 420.076 C 640.772 420.145, 628.071 420.123, 620.292 420.036 L 617.084 420 616.743 412.250 L 616.402 404.500 616.201 413.250 L 616 422 632.448 422 L 648.897 422 648.698 343.750 L 648.500 265.500 644.750 265.190 C 642.579 265.010, 641 265.326, 641 265.940 M 688 266 C 688 266.550, 689.575 267, 691.500 267 L 695 267 695 343.500 L 695 420 691.750 420.036 C 683.856 420.123, 671.227 420.145, 668.250 420.076 L 665 420 665 412.500 C 665 408.167, 664.578 405, 664 405 C 663.412 405, 663 408.500, 663 413.500 L 663 422 679.500 422 L 696 422 696 343.500 L 696 265 692 265 C 689.800 265, 688 265.450, 688 266 M 830 266 C 830 266.550, 831.575 267, 833.500 267 L 837 267 837 343.500 L 837 420 833.750 420.036 C 825.856 420.123, 813.227 420.145, 810.250 420.076 L 807 420 807 412.500 C 807 408.167, 806.578 405, 806 405 C 805.412 405, 805 408.500, 805 413.500 L 805 422 821.500 422 L 838 422 838 343.500 L 838 265 834 265 C 831.800 265, 830 265.450, 830 266 M 972 266 C 972 266.550, 973.575 267, 975.500 267 L 979 267 979 281.500 L 979 296 975.250 296.037 C 973.188 296.057, 962.500 296.170, 951.500 296.287 L 931.500 296.500 931.242 358.250 L 930.985 420 927.992 420.065 C 926.347 420.101, 920.950 420.130, 916 420.130 C 911.050 420.130, 905.669 420.101, 904.042 420.065 L 901.084 420 900.743 412.250 L 900.402 404.500 900.201 413.250 L 900 422 916.460 422 L 932.920 422 932.914 366.250 C 932.911 335.587, 932.929 307.688, 932.954 304.250 L 933 298 956.500 298 L 980 298 980 281.500 L 980 265 976 265 C 973.800 265, 972 265.450, 972 266 M 852 289.500 L 852 298 872.059 298 C 885.253 298, 891.905 297.656, 891.496 296.994 C 891.120 296.385, 884.888 296.023, 875.687 296.075 C 867.334 296.123, 859.038 296.126, 857.250 296.081 L 854 296 854 288.500 C 854 284.167, 853.578 281, 853 281 C 852.412 281, 852 284.500, 852 289.500 M 229.436 285.305 C 229.161 286.023, 229.062 292.211, 229.218 299.055 L 229.500 311.500 245.750 311.775 L 262 312.050 262 298.025 L 262 284 245.969 284 C 233.703 284, 229.820 284.307, 229.436 285.305 M 308.667 284.667 C 308.300 285.033, 308 287.313, 308 289.732 L 308 294.131 300.750 293.992 C 296.762 293.916, 287.313 293.887, 279.750 293.927 L 266 294 266 303.500 L 266 313 267.500 313 L 269 313 269 304.569 L 269 296.138 288.500 296.113 C 300.246 296.099, 308 296.469, 308 297.044 C 308 297.618, 300.411 298, 289 298 L 270 298 270 305.500 L 270 313 271.500 313 C 272.667 313, 273 311.667, 273 307 L 273 301 290.448 301 L 307.895 301 308.198 306.250 L 308.500 311.500 324.500 311.500 L 340.500 311.500 340.802 306.250 L 341.105 301 343.052 301 L 345 301 345 359.555 L 345 418.110 332.750 417.805 L 320.500 417.500 320.203 411.285 L 319.906 405.071 330.203 404.785 L 340.500 404.500 340.778 390.725 L 341.057 376.950 324.778 377.225 L 308.500 377.500 308.500 391 L 308.500 404.500 310.715 404.815 L 312.929 405.130 313.215 414.815 L 313.500 424.500 332.750 424.772 L 352 425.043 352 359.522 L 352 294 346.500 294 L 341 294 341 289 L 341 284 325.167 284 C 316.458 284, 309.033 284.300, 308.667 284.667 M 355.436 285.305 C 355.161 286.023, 355.062 292.211, 355.218 299.055 L 355.500 311.500 371.750 311.775 L 388 312.050 388 298.025 L 388 284 371.969 284 C 359.703 284, 355.820 284.307, 355.436 285.305 M 482 298 L 482 312 498 312 L 514 312 514 298 L 514 284 498 284 L 482 284 482 298 M 608 298.025 L 608 312.050 624.250 311.775 L 640.500 311.500 640.778 297.750 L 641.056 284 624.528 284 L 608 284 608 298.025 M 655.436 285.305 C 655.161 286.023, 655.062 292.211, 655.218 299.055 L 655.500 311.500 671.500 311.500 L 687.500 311.500 687.778 297.750 L 688.056 284 671.997 284 C 659.708 284, 655.820 284.306, 655.436 285.305 M 797.436 285.305 C 797.161 286.023, 797.062 292.211, 797.218 299.055 L 797.500 311.500 813.500 311.500 L 829.500 311.500 829.778 297.750 L 830.056 284 813.997 284 C 801.708 284, 797.820 284.306, 797.436 285.305 M 341 297 C 341 297.550, 342.575 298, 344.500 298 L 348 298 348 359 L 348 420 344.750 420.036 C 336.856 420.123, 324.227 420.145, 321.250 420.076 L 318 420 318 412.500 C 318 408.167, 317.578 405, 317 405 C 316.412 405, 316 408.500, 316 413.500 L 316 422 332.500 422 L 349 422 349 359 L 349 296 345 296 C 342.800 296, 341 296.450, 341 297 M 229.436 316.305 C 229.161 317.023, 229.062 323.211, 229.218 330.055 L 229.500 342.500 285 342.500 L 340.500 342.500 340.778 328.750 L 341.056 315 285.497 315 L 229.937 315 229.436 316.305 M 355.436 316.305 C 355.161 317.023, 355.062 323.211, 355.218 330.055 L 355.500 342.500 357.715 342.815 L 359.929 343.130 360.215 352.815 L 360.500 362.500 397.198 362.762 L 433.896 363.025 434.198 368.262 L 434.500 373.500 450.750 373.775 L 467 374.050 467 360 L 467 345.950 450.750 346.225 L 434.500 346.500 434.195 351.265 L 433.889 356.030 400.695 355.765 L 367.500 355.500 367.202 349.250 L 366.905 343 416.952 343 L 467 343 467 337.500 L 467 332 469 332 L 471 332 471 374.966 L 471 417.932 419.250 417.716 L 367.500 417.500 367.202 411.250 L 366.905 405 416.952 405 L 467 405 467 390.992 L 467 376.983 411.250 377.242 L 355.500 377.500 355.500 391 L 355.500 404.500 357.715 404.815 L 359.929 405.130 360.215 414.815 L 360.500 424.500 419.250 424.758 L 478 425.016 478 375.060 L 478 325.105 472.750 324.802 L 467.500 324.500 467.195 319.750 L 466.890 315 411.414 315 L 355.937 315 355.436 316.305 M 482 329 L 482 343 498 343 L 514 343 514 329 L 514 315 498 315 L 482 315 482 329 M 608 329.025 L 608 343.050 624.250 342.775 L 640.500 342.500 640.778 328.750 L 641.056 315 624.528 315 L 608 315 608 329.025 M 655.436 316.305 C 655.161 317.023, 655.062 323.211, 655.218 330.055 L 655.500 342.500 671.500 342.500 L 687.500 342.500 687.778 328.750 L 688.056 315 671.997 315 C 659.708 315, 655.820 315.306, 655.436 316.305 M 702.436 316.305 C 702.161 317.023, 702.062 323.211, 702.218 330.055 L 702.500 342.500 704.715 342.815 L 706.929 343.130 707.215 352.815 L 707.500 362.500 750.250 362.761 L 793 363.021 793 344.063 L 793 325.105 787.750 324.802 L 782.500 324.500 782.195 319.750 L 781.890 315 742.414 315 L 702.937 315 702.436 316.305 M 797.436 316.305 C 797.161 317.023, 797.062 323.211, 797.218 330.055 L 797.500 342.500 813.500 342.500 L 829.500 342.500 829.778 328.750 L 830.056 315 813.997 315 C 801.708 315, 797.820 315.306, 797.436 316.305 M 892 329 L 892 343 908 343 L 924 343 924 329 L 924 315 908 315 L 892 315 892 329 M 467.500 328 C 467.132 328.595, 468.323 329, 470.441 329 L 474 329 474 374.500 L 474 420 470.750 420.044 C 466.703 420.099, 371.520 420.096, 367.750 420.040 L 365 420 365 412.500 C 365 408.167, 364.578 405, 364 405 C 363.412 405, 363 408.500, 363 413.500 L 363 422 419 422 L 475 422 475 374.500 L 475 327 471.559 327 C 469.666 327, 467.840 327.450, 467.500 328 M 782.534 327.945 C 782.123 328.609, 783.200 329, 785.441 329 L 789 329 789 343.500 L 789 358 786 358.046 C 784.350 358.071, 768.375 358.092, 750.500 358.092 C 732.625 358.092, 716.650 358.071, 715 358.046 L 712 358 712 350.500 C 712 346.167, 711.578 343, 711 343 C 710.412 343, 710 346.500, 710 351.500 L 710 360 750.480 360 L 790.960 360 790.730 343.750 L 790.500 327.500 786.843 327.195 C 784.831 327.028, 782.892 327.365, 782.534 327.945 M 782 337.500 L 782 343 747.952 343 L 713.905 343 714.202 349.250 L 714.500 355.500 750.250 355.735 L 786 355.971 786 343.985 L 786 332 784 332 L 782 332 782 337.500 M 363 351.500 L 363 360 398.500 360 C 421.270 360, 434 359.645, 434 359.010 C 434 358.376, 422.750 358.038, 402.750 358.072 C 385.563 358.102, 370.038 358.097, 368.250 358.063 L 365 358 365 350.500 C 365 346.167, 364.578 343, 364 343 C 363.412 343, 363 346.500, 363 351.500 M 229.436 347.305 C 229.161 348.023, 229.062 354.211, 229.218 361.055 L 229.500 373.500 245.750 373.775 L 262 374.050 262 360.025 L 262 346 245.969 346 C 233.703 346, 229.820 346.307, 229.436 347.305 M 308.667 346.667 C 308.300 347.033, 308 349.313, 308 351.732 L 308 356.131 300.750 355.992 C 296.762 355.916, 287.313 355.887, 279.750 355.927 L 266 356 266 386.936 L 266 417.872 253.750 417.686 L 241.500 417.500 241.202 411.250 L 240.905 405 251.452 405 L 262 405 262 390.975 L 262 376.950 245.750 377.225 L 229.500 377.500 229.500 391 L 229.500 404.500 231.715 404.815 L 233.929 405.130 234.215 414.815 L 234.500 424.500 253.750 424.772 L 273 425.043 273 394.022 L 273 363 290.448 363 L 307.895 363 308.198 368.250 L 308.500 373.500 324.500 373.500 L 340.500 373.500 340.778 359.750 L 341.056 346 325.195 346 C 316.471 346, 309.033 346.300, 308.667 346.667 M 482 360 L 482 374 484.500 374 L 487 374 487 384 L 487 394 491.948 394 L 496.895 394 497.198 399.250 L 497.500 404.500 499.715 404.815 L 501.929 405.130 502.215 414.815 L 502.500 424.500 553.250 424.759 L 604 425.018 604 406.061 L 604 387.105 598.750 386.802 L 593.500 386.500 593.195 381.740 L 592.890 376.981 545.195 377.240 L 497.500 377.500 497.195 382.250 C 496.981 385.585, 496.460 387, 495.445 387 C 494.333 387, 494 385.502, 494 380.500 L 494 374 504 374 L 514 374 514 360 L 514 346 498 346 L 482 346 482 360 M 608 360.025 L 608 374.050 624.250 373.775 L 640.500 373.500 640.778 359.750 L 641.056 346 624.528 346 L 608 346 608 360.025 M 655.436 347.305 C 655.161 348.023, 655.062 354.211, 655.218 361.055 L 655.500 373.500 671.500 373.500 L 687.500 373.500 687.778 359.750 L 688.056 346 671.997 346 C 659.708 346, 655.820 346.306, 655.436 347.305 M 797.436 347.305 C 797.161 348.023, 797.062 354.211, 797.218 361.055 L 797.500 373.500 813.500 373.500 L 829.500 373.500 829.778 359.750 L 830.056 346 813.997 346 C 801.708 346, 797.820 346.306, 797.436 347.305 M 892 360 L 892 374 908 374 L 924 374 924 360 L 924 346 908 346 L 892 346 892 360 M 269 389.069 L 269 420 266 420.065 C 264.350 420.101, 258.950 420.130, 254 420.130 C 249.050 420.130, 243.650 420.101, 242 420.065 L 239 420 239 412.500 C 239 408.167, 238.578 405, 238 405 C 237.412 405, 237 408.500, 237 413.500 L 237 422 253.500 422 L 270 422 270 391 L 270 360 289 360 C 300.411 360, 308 359.618, 308 359.044 C 308 358.469, 300.246 358.099, 288.500 358.113 L 269 358.138 269 389.069 M 490.201 382.250 L 490 391 493.500 391 C 495.425 391, 497 390.550, 497 390 C 497 389.450, 495.669 389, 494.042 389 L 491.084 389 490.743 381.250 L 490.402 373.500 490.201 382.250 M 593.534 389.945 C 593.123 390.609, 594.200 391, 596.441 391 L 600 391 600 405.500 L 600 420 596.750 420.046 C 592.631 420.105, 513.445 420.103, 509.750 420.044 L 507 420 507 412.500 C 507 408.167, 506.578 405, 506 405 C 505.412 405, 505 408.500, 505 413.500 L 505 422 553.480 422 L 601.960 422 601.730 405.750 L 601.500 389.500 597.843 389.195 C 595.831 389.028, 593.892 389.365, 593.534 389.945 M 593 399.500 L 593 405 550.952 405 L 508.905 405 509.202 411.250 L 509.500 417.500 553.250 417.750 L 597 417.999 597 406 L 597 394 595 394 L 593 394 593 399.500" stroke="none" fill="#f4f4f4" fill-rule="evenodd"/></svg>